<?xml version="1.0" standalone="no"?>
<!DOCTYPE svg PUBLIC "-//W3C//DTD SVG 20010904//EN"
 "http://www.w3.org/TR/2001/REC-SVG-20010904/DTD/svg10.dtd">
<svg version="1.0" xmlns="http://www.w3.org/2000/svg"
 width="512.000000pt" height="512.000000pt" viewBox="0 0 512.000000 512.000000"
 preserveAspectRatio="xMidYMid meet">
<metadata>
Created by potrace 1.11, written by Peter Selinger 2001-2013
</metadata>
<g transform="translate(0.000000,512.000000) scale(0.100000,-0.100000)"
fill="#000000" stroke="none">
<path d="M770 4576 c-90 -24 -172 -95 -214 -185 l-21 -46 0 -1785 0 -1785 26
-56 c32 -68 82 -120 152 -157 l52 -27 1795 0 1795 0 52 27 c70 37 120 89 152
157 l26 56 0 1785 0 1785 -24 52 c-28 62 -103 136 -169 166 l-47 22 -1765 2
c-1373 1 -1775 -1 -1810 -11z m3109 -1169 c-2 -2 -36 -25 -76 -51 -70 -47 -75
-54 -185 -230 -62 -100 -127 -203 -145 -231 -40 -60 -41 -72 -5 -88 15 -7 42
-21 61 -31 l34 -18 -67 -67 -66 -67 165 -221 c155 -208 168 -222 212 -239 48
-17 76 -34 57 -34 -5 0 -99 -14 -209 -30 -235 -35 -213 -33 -211 -16 0 8 -62
99 -138 202 -129 173 -140 186 -153 168 -8 -10 -58 -89 -111 -174 -53 -85
-111 -177 -129 -205 -18 -27 -31 -57 -28 -65 4 -14 -24 -20 -192 -44 -109 -15
-207 -30 -218 -32 -20 -5 -11 4 71 71 18 14 57 67 88 118 32 50 104 166 161
257 57 91 104 171 105 177 0 7 -25 29 -55 49 -30 20 -55 38 -55 40 0 1 27 24
59 49 l60 47 -82 112 c-213 292 -212 291 -305 320 -22 7 -22 6 -22 -77 0 -46
-3 -111 -6 -144 l-7 -60 -27 30 -28 31 -167 -22 c-92 -13 -172 -25 -176 -28
-5 -3 -9 -70 -9 -149 0 -138 1 -144 21 -150 12 -4 37 -16 56 -28 l35 -20 -55
-56 -55 -56 -4 -240 -3 -239 63 -24 c35 -13 61 -26 59 -28 -4 -4 -541 -84
-562 -84 -5 0 18 19 53 41 l62 42 0 246 -1 246 -49 34 c-28 18 -50 37 -50 41
0 4 22 24 49 46 l49 39 7 132 c4 73 5 139 1 148 -4 12 -14 15 -38 11 -18 -3
-97 -15 -176 -27 l-144 -22 -25 -38 c-37 -56 -47 -50 -39 22 3 34 6 105 6 159
l0 96 583 83 c583 82 898 127 949 136 19 3 30 -1 37 -13 5 -9 65 -93 134 -185
l124 -168 139 225 c131 212 141 226 174 232 62 13 395 60 399 57 2 -2 2 -4 0
-6z"/>
</g>
</svg>
