<?xml version="1.0" standalone="no"?>
<!DOCTYPE svg PUBLIC "-//W3C//DTD SVG 20010904//EN"
 "http://www.w3.org/TR/2001/REC-SVG-20010904/DTD/svg10.dtd">
<svg version="1.0" xmlns="http://www.w3.org/2000/svg"
 width="192.000000pt" height="192.000000pt" viewBox="0 0 192.000000 192.000000"
 preserveAspectRatio="xMidYMid meet">
<metadata>
Created by potrace 1.11, written by Peter Selinger 2001-2013
</metadata>
<g transform="translate(0.000000,192.000000) scale(0.100000,-0.100000)"
fill="#000000" stroke="none">
<path d="M281 1707 c-19 -7 -44 -25 -55 -40 -21 -28 -21 -34 -21 -706 0 -639
1 -678 18 -705 38 -57 28 -56 739 -56 730 0 704 -2 740 70 17 32 18 86 17 685
0 477 -3 659 -12 684 -7 19 -25 44 -40 55 -28 21 -36 21 -690 23 -496 2 -671
-1 -696 -10z m387 -509 l2 -188 39 0 c25 0 44 -7 55 -19 16 -18 16 -20 -5 -40
-13 -12 -38 -31 -56 -44 -18 -12 -33 -26 -33 -31 0 -9 -2 -11 90 61 85 66 100
73 152 73 50 0 84 -19 75 -43 -3 -8 -67 -62 -143 -119 -75 -56 -146 -111 -158
-122 -52 -46 47 24 208 146 l168 128 75 0 c71 0 74 -1 71 -22 -2 -14 -30 -43
-73 -76 -38 -29 -83 -64 -100 -76 -114 -88 -372 -279 -383 -284 -8 -2 -20 2
-28 10 -11 11 -12 17 -2 29 7 8 118 93 246 189 127 95 230 175 228 177 -2 3
-103 -70 -224 -161 -121 -91 -225 -166 -231 -166 -17 0 -31 36 -31 79 0 43 -9
35 246 228 16 12 26 22 23 22 -3 1 -55 -35 -115 -79 -60 -44 -116 -80 -125
-80 -21 0 -29 20 -29 70 0 30 7 45 27 65 26 24 27 25 6 25 -11 0 -24 7 -27 16
-8 21 -8 388 0 409 4 9 15 15 28 13 20 -3 21 -8 24 -190z m640 -231 c2 -366 0
-418 -13 -423 -8 -4 -22 0 -31 7 -14 11 -15 60 -12 413 2 221 7 407 11 414 5
7 16 12 25 10 15 -3 17 -41 20 -421z"/>
</g>
</svg>
